<?xml version="1.0" encoding="UTF-8"?>
<svg id="Calque_1" xmlns="http://www.w3.org/2000/svg" viewBox="0 0 494.64 260.95">
  <defs>
    <style>
      .cls-1 {
        fill: #f97a0a;
      }

      .cls-2 {
        fill: #114fcb;
      }
    </style>
  </defs>
  <g id="Logo_Primaire">
    <path class="cls-2" d="M294.24,135.24l-2.32-1.31c4.06-7.21-7.97-21.8-27.39-33.21-14.04-8.25-29.01-12.31-37.25-10.09-2.43.65-4.12,1.81-5.04,3.45l-2.32-1.31c1.28-2.28,3.53-3.86,6.67-4.71,9.02-2.43,24.44,1.64,39.29,10.36,21.37,12.56,33.3,28.04,28.36,36.81Z"/>
    <g>
      <path class="cls-1" d="M91.49,156.06c-.03.1-.03.18,0,.23.03.05.1.08.2.08h47.35c5.68,0,9.69,5.56,7.9,10.95l-9.2,27.73c-1.13,3.41-4.31,5.71-7.9,5.71H25.54c-5.68,0-9.69-5.56-7.9-10.95l2.58-7.77c2.07-6.24,4.15-12.5,6.24-18.8,2.09-6.29,4.16-12.55,6.23-18.8,2.07-6.24,4.14-12.48,6.21-18.72s4.21-12.71,6.34-19.1l4.44-13.39c1.13-3.41,4.31-5.71,7.9-5.71h45.11c5.68,0,9.69,5.56,7.9,10.95l-2.05,6.19c-1.89,5.69-3.78,11.4-5.68,17.14-1.9,5.74-3.8,11.45-5.68,17.14-1.89,5.69-3.78,11.4-5.68,17.14Z"/>
      <path class="cls-1" d="M337.06,87.52c9.46,0,17.49,1.03,24.11,3.09,6.61,2.06,11.93,4.91,15.97,8.53,4.03,3.62,6.92,7.83,8.65,12.61,1.73,4.78,2.51,9.89,2.31,15.32-.19,5.44-1.22,10.97-3.09,16.61-2.37,7.15-5.97,14.12-10.78,20.91-4.82,6.79-10.83,12.91-18.01,18.34-7.19,5.44-15.52,9.76-24.99,12.98-9.48,3.22-20.05,4.83-31.72,4.83h-78.45c-5.68,0-9.69-5.56-7.9-10.95l2.75-8.3c2.12-6.39,4.24-12.78,6.36-19.17,2.12-6.39,4.24-12.78,6.36-19.17,2.12-6.39,4.25-12.81,6.39-19.25,2-6.04,4.01-12.1,6.03-18.19l4.14-12.49c1.13-3.41,4.31-5.71,7.9-5.71h83.97ZM310.56,131h-18.12l-.1.3-8.51,25.67-.1.3h18.42c2.21,0,4.32-.35,6.32-1.06,1.99-.7,3.79-1.66,5.4-2.87,1.61-1.21,3-2.62,4.19-4.23,1.19-1.61,2.06-3.27,2.63-4.98.8-2.42.95-4.63.47-6.64-.49-2.01-1.6-3.6-3.33-4.76-1.73-1.16-4.16-1.74-7.28-1.74Z"/>
      <path class="cls-1" d="M216.69,126.12h-45.11c-3.59,0-6.77,2.3-7.9,5.71l-4.44,13.39c-2.12,6.39-4.23,12.76-6.34,19.1-1.43,4.32-2.87,8.65-4.3,12.97-.03.09-.02.19-.05.28-1.38,4.17-2.76,8.33-4.15,12.5-1.58,5.31,2.37,10.69,7.96,10.69h45.11c3.59,0,6.77-2.3,7.9-5.71l4.19-12.64c2.02-6.09,4.04-12.18,6.06-18.27,1.62-4.87,3.22-9.71,4.83-14.55.03-.09.02-.19.05-.28,1.39-4.18,2.77-8.34,4.15-12.5,1.58-5.31-2.37-10.69-7.96-10.69Z"/>
      <path class="cls-1" d="M469.1,156.96h-47.35c-.1,0-.17-.02-.2-.08-.03-.05-.03-.12,0-.23,1.9-5.74,3.8-11.45,5.68-17.14,1.89-5.69,3.78-11.4,5.68-17.14,1.9-5.74,3.8-11.45,5.68-17.14l2.05-6.19c1.79-5.39-2.23-10.95-7.9-10.95h-45.11c-3.59,0-6.79,2.1-7.9,5.71h0c-.38,1.55.49,3.05,1.67,3.94.86.65,1.27,1,2.04,1.69,4.03,3.62,6.98,8.11,8.72,12.89,1.73,4.78,2.51,9.89,2.31,15.32-.19,5.44-1.22,10.97-3.09,16.61-2.37,7.15-5.97,14.12-10.78,20.91-4.82,6.79-10.83,12.91-18.01,18.34-3.09,2.34-6.42,4.45-9.95,6.36-5.54,3-3.48,11.4,2.82,11.45h.15s104.29,0,104.29,0c3.59,0,6.77-2.3,7.9-5.71l9.2-27.73c1.79-5.39-2.22-10.95-7.9-10.95Z"/>
    </g>
    <path class="cls-1" d="M230.29,89.34l-22.84-27.41c-1.82-2.18-4.86-2.92-7.56-1.84l-10.6,4.26c-5.06,2.03-10.1,4.06-15.11,6.07-3.42,1.37-6.84,2.75-10.26,4.12-4.11,1.8-5.46,6.99-2.63,10.39l22.84,27.41c1.82,2.18,4.86,2.92,7.56,1.84l10-4.02c4.82-1.94,9.64-3.87,14.46-5.81,3.85-1.55,7.69-3.09,11.52-4.63,4.11-1.8,5.46-6.99,2.63-10.39ZM220.6,97.27c-2.97,0-5.38-2.41-5.38-5.38s2.41-5.38,5.38-5.38,5.38,2.41,5.38,5.38-2.41,5.38-5.38,5.38Z"/>
    <circle class="cls-2" cx="192.72" cy="85.91" r="14.64"/>
    <path class="cls-2" d="M281.71,140.65c-9.06,0-21.43-4.01-33.43-11.06-21.37-12.56-33.3-28.04-28.36-36.81l2.32,1.31c-4.06,7.21,7.97,21.8,27.39,33.21,14.04,8.25,29.01,12.31,37.24,10.09,2.43-.65,4.12-1.81,5.04-3.45l2.32,1.31c-1.28,2.28-3.53,3.87-6.67,4.71-1.73.47-3.71.7-5.86.7Z"/>
  </g>
</svg>